<svg width="32" height="32" fill="none" xmlns="http://www.w3.org/2000/svg"><path fill-rule="evenodd" clip-rule="evenodd" d="M14.033 3C7.94 3 3 7.94 3 14.033c0 6.094 4.94 11.034 11.033 11.034 3.047 0 5.804-1.234 7.802-3.232a10.995 10.995 0 003.232-7.802C25.067 7.94 20.127 3 14.033 3zM1 14.033C1 6.835 6.835 1 14.033 1c7.199 0 13.034 5.835 13.034 13.033 0 3.24-1.183 6.203-3.138 8.482l5.853 5.853a1 1 0 01-1.414 1.414l-5.853-5.853a12.986 12.986 0 01-8.482 3.138C6.835 27.067 1 21.232 1 14.033z" fill="#000"/><path d="M23.93 22.515l-.76-.65a1 1 0 00.052 1.357l.707-.707zm-1.415 1.414l.707-.707a1 1 0 00-1.358-.052l.651.76zM4 14.033C4 8.493 8.492 4 14.033 4V2C7.388 2 2 7.388 2 14.033h2zm10.033 10.034C8.493 24.067 4 19.575 4 14.033H2c0 6.646 5.388 12.034 12.033 12.034v-2zm7.095-2.939a9.995 9.995 0 01-7.095 2.939v2c3.323 0 6.332-1.347 8.51-3.525l-1.415-1.414zm2.939-7.095a9.995 9.995 0 01-2.939 7.095l1.414 1.414a11.995 11.995 0 003.525-8.509h-2zM14.033 4c5.542 0 10.034 4.492 10.034 10.033h2C26.067 7.388 20.679 2 14.033 2v2zm0-4C6.283 0 0 6.283 0 14.033h2C2 7.388 7.388 2 14.033 2V0zm14.034 14.033C28.067 6.283 21.784 0 14.033 0v2c6.646 0 12.034 5.388 12.034 12.033h2zm-3.379 9.133a13.986 13.986 0 003.379-9.133h-2c0 2.991-1.091 5.726-2.897 7.831l1.518 1.302zm5.801 4.495l-5.852-5.853-1.415 1.414 5.853 5.853 1.414-1.414zm0 2.828a2 2 0 000-2.828l-1.414 1.414 1.414 1.414zm-2.828 0a2 2 0 002.828 0l-1.414-1.414-1.414 1.414zm-5.853-5.852l5.853 5.852 1.414-1.414-5.853-5.853-1.414 1.415zm-7.775 3.43c3.487 0 6.68-1.274 9.133-3.379l-1.302-1.518a11.985 11.985 0 01-7.83 2.897v2zM0 14.033c0 7.75 6.283 14.034 14.033 14.034v-2C7.388 26.067 2 20.679 2 14.033H0z" fill="#797986"/></svg>